<?xml version="1.0" encoding="UTF-8" standalone="no"?>
<svg width="197px" height="1080px" viewBox="0 0 197 1080" version="1.1" xmlns="http://www.w3.org/2000/svg" xmlns:xlink="http://www.w3.org/1999/xlink" xmlns:sketch="http://www.bohemiancoding.com/sketch/ns">
    <!-- Generator: Sketch 3.3.3 (12072) - http://www.bohemiancoding.com/sketch -->
    <title>fighters</title>
    <desc>Created with Sketch.</desc>
    <defs></defs>
    <g id="Page-1" stroke="none" stroke-width="1" fill="none" fill-rule="evenodd" sketch:type="MSPage">
        <g id="fighters" sketch:type="MSArtboardGroup">
            <g id="Group-2" sketch:type="MSLayerGroup" transform="translate(10.000000, 0.000000)">
                <path d="M26,27 L27.5,24 L28.5,17 L27.5,14.5 L28,11.5 L29,7 L32.5,3.5 C32.5,3.5 36.5,1.5 38.5,2.5 C40.5,3.5 44.5,4.99999979 45.5,7.5 C46.5,10.0000002 46,11.5 46,11.5 L44.5,16 L45,17 L42.5,23 L43,24.5 L43.5,26.5 L42.5,28 L46.5,29.5 L49,30 L56.5,36 L82,40.5 L82.5,39.5 L83.5,38 L88.5,40 L90.5,42.5 L94,45 L108.5,46.5 L118.5,40 C118.5,40 123.5,34.4999993 124,34 C124.5,33.5000007 135.5,25.5 135.5,25.5 L134,24.5 L132.5,26 L131,26 L128,22.5 L124.5,17 L122.5,12 L123,8.5 L126,5 L129.5,1.5 L133.5,0.5 L137.5,2 L140.5,4 L141.5,6.5 L142.5,10.5 L143.5,15 L147.5,19 L149,19 L153,19.5 L157,20 L159,21.5 L163,26 L164,30 L165,42.5 L165,49 L167.5,62 L170,72.5 L173,77.5 L174,84.5 L173,108.5 L172.5,118 L176,127 L186,149.5 L178,154 L168.5,155.5 L164,155.5 L164,153 L168,152 L173.5,147 L160.5,121.5 L159.5,115 L157,95.5 L146,111.5 L144,114 L143,119.5 L141,156 L140.5,163.5 L139.5,165.5 L133.5,166 L122.5,166 L118,164.5 L115,162 L116.5,160.5 L125.5,158.5 L129.5,156.5 L129.5,120.5 L130,112.5 L130.5,108 L135,97.5 L142,78.5 L143.5,69.5 L138.5,56 L136.5,54 L121,51 L110.5,55.5 L107,56 L90,48.5 L87,48 L83.5,47.5 L80,44 L57.5,40 L58.5,45 L59,50.5 L58,55 L57.5,56.5 L54,57.5 L51.5,57 L48,52 L46.5,58 L46,71.5 L53.5,115 L63,126 L65,128 L72.5,140 L75.5,143 L75.5,144 L73.5,153.5 L71.5,158.5 L69,160 L64.5,160.5 L61,159 L59,158 L62,154.5 L65.5,147.5 L61,147.5 L37.5,113 L28,97.5 L19,126 L17,137 L13,154 L12,154 L11,155.5 L15,159.5 L15,161 L12.5,162.5 L6.5,162.5 L0.5,159 L0,154.5 L1.5,149 L2,143.5 L7,119.5 L11,91.5 L12.5,79.5 L15.5,73 L17.5,71.5 L17.5,57.5 L16.5,51 L14.5,51.5 L12.5,49.5 L11.5,48.5 L10.5,43 L11,37.5 L12,32.5 L15,29 L20.5,28.5 L26,27 Z" id="Path-566" fill-opacity="0.166213768" fill="#000000" sketch:type="MSShapeGroup"></path>
                <path d="M81.7425296,41.8411243 L38.4176204,41.8411243 L38.4176204,45.4108358 L80.2082969,45.4108358 M121.308548,45.4108358 L137.499593,45.4108358 M133.850577,41.8411243 L126.783274,41.8411243" id="Rectangle-4" stroke="#000000" sketch:type="MSShapeGroup" transform="translate(87.958606, 43.625980) rotate(-350.000000) translate(-87.958606, -43.625980) "></path>
                <path d="M25.2112533,91.8125 L35.9309979,110.25601 L44.2685775,123.543269 L60.7452229,147.539663 C60.7452229,147.539663 63.9214437,147.737981 65.3110403,147.737981 C65.3110403,149.126202 61.1422505,156.067308 59.9511677,157.257212 C58.7600849,158.447115 59.7526539,158.84375 59.7526539,158.84375 C59.7526539,158.84375 63.3259023,160.826923 65.7080679,160.231971 C68.0902335,159.637019 71.8619958,161.223558 73.64862,152.894231 C75.2367304,146.151442 76.0307856,143.969952 75.2367304,142.978365 C74.4426752,141.986779 72.2590234,140.003606 72.2590234,140.003606 C72.2590234,140.003606 65.9065817,130.428704 64.7154989,128.302885 C63.5244161,126.177065 54.7898089,116.602163 53.5987261,115.213942 C52.6061571,107.479567 48.2388535,86.0612981 48.2388535,86.0612981 C48.2388535,86.0612981 46.2537155,72.1790865 45.8566879,71.5841346 C39.7027601,72.9723558 25.4097665,75.3521635 16.873673,71.3858173 C14.0944798,73.765625 13.3004246,78.921875 12.7048832,80.9050481 C12.1093418,82.8882212 10.918259,92.4074519 10.918259,92.4074519 L7.94055202,111.842548 L6.94798301,119.378606 C6.94798301,119.378606 2.1836518,139.012019 1.3895966,148.729567 C1.3895966,148.729567 0.992568986,150.71274 0.397027601,152.894231 C-0.198513785,155.075721 0.198513801,159.042067 0.794055202,159.042067 C1.3895966,159.042067 2.58067952,162.215144 7.34501062,162.810096 C12.1093417,163.405048 15.285562,161.620192 15.2855626,161.223558 C15.2855633,160.826923 15.0870488,159.438702 15.0870488,159.438702 C15.0870488,159.438702 11.7123143,157.653846 10.918259,155.274038 C11.5138004,153.092548 13.3004246,154.084135 13.3004246,154.084135 C13.3004246,154.084135 18.0647552,135.481323 18.858811,126.319712 C22.2335456,116.602163 27.1963907,100.935096 27.1963907,100.935096 L28.1889597,97.3653846 L24.4171975,92.8040865" id="Path-493" stroke="#000000" sketch:type="MSShapeGroup"></path>
                <path d="M26.7993631,34.3004808 L30.5711253,39.2584135 L34.5414013,34.1021635 L37.5191083,32.3173077 L39.7027601,29.9375 C39.7027601,29.9375 41.4893843,29.3425481 42.2834395,28.3509615 C43.0774947,27.359375 43.6730361,25.3762019 42.4819533,23.9879808 C41.2908705,22.5997596 38.1146497,20.8149038 36.7250531,21.8064904 C35.3354565,22.7980769 31.9607219,26.7644231 31.9607219,26.7644231 C31.9607219,26.7644231 30.1740977,30.3341344 29.7770701,30.9290865 C28.9830149,31.5240385 26.7993631,34.3004808 26.7993631,34.3004808 Z" id="Path-494" stroke="#000000" fill="#FF5454" sketch:type="MSShapeGroup"></path>
                <path d="M56.5764331,36.0853365 C56.5764331,36.0853365 52,35.5 50.3860412,34.8205396 C50.2658533,33.9200232 50.0254777,32.1189904 50.0254777,32.1189904 C50.0254777,32.1189904 47.6433121,29.9375 47.2462845,28.7475962 C46.8492569,27.5576923 46.0552017,26.7644231 46.0552017,26.7644231 C46.0552017,26.7644231 44.0700637,24.5829327 44.4670913,23.3930288 C44.8641189,22.203125 46.4522292,20.4182692 48.0403397,20.4182692 C49.6284502,20.4182692 52.4076436,20.2199519 52.8046709,21.8064904 C53.2016983,23.3930288 56.1794058,27.3593748 55.3853503,29.5408654 C55.9808917,32.1189904 56.5764331,36.0853365 56.5764331,36.0853365 Z" id="Path-495" stroke="#000000" fill="#FF5454" sketch:type="MSShapeGroup"></path>
                <path d="M57.4757538,39.9988923 C58.0830748,42.1066504 58.7552276,44.7627725 58.9585987,46.7944712 C59.3556263,50.7608173 58.3630573,55.71875 57.7675159,56.3137019 C57.1719745,56.9086538 53.2016985,57.5036058 52.2091295,57.1069712 C51.2165605,56.7103365 48.8343949,53.3389423 48.6358811,52.5456731 L47.8418259,49.3725962 C47.8418259,49.3725962 49.2314225,47.1911058 49.8269639,46.9927885 C49.4299363,47.7860577 49.6284501,48.9759615 49.6284501,48.9759615 L50.4225053,44.8112981 C50.4225053,44.8112981 50.6499361,40.8351987 50.7636515,38.847149" id="Path-496" stroke="#000000" sketch:type="MSShapeGroup"></path>
                <path d="M29.9755839,38.6634615 C29.9755839,38.6634615 24.6157113,46.1995192 23.6231423,47.1911058 C22.6305732,48.1826923 16.873673,51.5540865 15.2855626,51.5540865 C13.6974522,51.5540865 11.7123142,49.1742788 11.5138004,48.7776442 C11.3152866,48.3810096 10.1242038,43.6213942 10.1242038,43.6213942 L10.7197452,40.4483173 C10.7197452,40.4483173 15.2855626,37.4735577 17.6677282,38.8617788 C16.4766454,39.4567308 16.0796178,39.8533654 16.0796178,39.8533654 L21.0424628,37.4735577 L26.7993631,34.3004808" id="Path-497" stroke="#000000" sketch:type="MSShapeGroup"></path>
                <path d="M10.7197452,40.25 C10.7197452,40.25 11.1167728,33.9038462 12.7048832,32.1189904 C14.2929936,30.3341346 14.4915074,28.5492788 18.0647558,28.5492788 C21.6380042,28.5492788 26.2038217,27.1610577 26.2038217,27.1610577 C26.2038217,27.1610577 26.6008493,30.1358173 29.5785563,30.9290865" id="Path-498" stroke="#000000" sketch:type="MSShapeGroup"></path>
                <path d="M42.4819533,28.1526442 C42.4819533,28.1526442 46.8492569,29.5408654 48.0403397,29.7391827" id="Path-499" stroke="#000000" sketch:type="MSShapeGroup"></path>
                <path d="M48.2388535,50.9591346 C48.2388535,50.9591346 46.8492569,56.7103365 46.4522293,57.9002404 C46.0552017,59.0901442 45.8566879,64.8413462 45.8566879,66.03125 L45.8566879,71.3858173" id="Path-500" stroke="#000000" sketch:type="MSShapeGroup"></path>
                <path d="M16.873673,71.3858173 C16.873673,71.1875 16.873673,68.0144231 17.0721868,67.4194712 C17.2707006,66.8245192 17.0721868,58.6935096 17.2707006,58.0985577 C17.4692144,57.5036058 16.4766454,51.3557692 16.4766454,51.3557692" id="Path-501" stroke="#000000" sketch:type="MSShapeGroup"></path>
                <path d="M26.2038217,27.1610577 C26.2038217,27.1610577 27.5934183,24.5829327 27.7919321,24.1862981 C27.9904459,23.7896635 28.5859873,17.046875 28.5859873,17.046875" id="Path-502" stroke="#000000" sketch:type="MSShapeGroup"></path>
                <path d="M29.7770701,16.8485577 C29.7770701,16.8485577 29.3800425,17.8401442 28.5859873,17.046875 C27.7919321,16.2536058 27.1963907,14.0721154 27.5934183,12.8822115 C27.9904459,11.6923077 28.5859872,10.7007212 29.5785563,11.0973558" id="Path-503" stroke="#000000" sketch:type="MSShapeGroup"></path>
                <path d="M27.7919321,12.0889423 C27.7919321,12.0889423 27.9904459,8.51923077 29.3800425,6.53605769 C30.7696391,4.55288462 33.7473461,1.578125 38.3131635,2.56971154 C42.8789809,3.56129808 46.6507431,7.32932698 46.0552017,10.7007212 C45.4596603,14.0721153 44.6656051,16.0552885 44.6656051,16.0552885 L44.8641189,17.4435096 C44.8641189,17.4435096 43.6730361,21.4098558 42.2834395,23.3930288" id="Path-504" stroke="#000000" sketch:type="MSShapeGroup"></path>
                <path d="M81.9787686,39.4735577 L82.1772824,41.4567308 L80.1921444,43.6382212 C80.1921444,43.6382212 81.1847134,47.2079327 83.3683652,47.8028846 C85.552017,48.3978365 87.9341826,48.1995192 87.9341826,48.1995192 L92.3014862,49.5877404 C92.3014862,49.5877404 91.507431,48.0012019 91.9044586,47.2079327 C92.3014862,46.4146635 93.0955414,44.6298077 93.8895966,44.6298077 C91.7059448,43.6382212 90.7133758,42.6466346 90.3163482,42.6466346 C89.9193206,42.6466346 88.1326964,39.8701923 88.1326964,39.8701923 L83.1698514,38.0853365 L81.9787686,39.4735577 Z" id="Path-505" stroke="#000000" sketch:type="MSShapeGroup"></path>
                <path d="M92.3014862,49.3894231 C92.3014862,49.3894231 102.42569,54.5456731 103.418259,54.9423077 C104.410828,55.3389423 106.991507,56.1322115 106.991507,56.1322115 L109.770701,56.1322115 L121.085987,50.7776442 L131.011677,45.8197115 L133.989384,45.0264423" id="Path-506" stroke="#000000" sketch:type="MSShapeGroup"></path>
                <path d="M129.820594,46.4146635 L133.989384,49.984375 L138.356688,56.3305288 L142.723992,67.0396635 L143.121019,69.6177885 L141.929936,78.7403846 L135.378981,96.390625 L130.416136,108.686298 L129.423567,113.049279 L129.225053,125.741587 C129.225053,125.741587 129.225052,152.316106 129.225052,156.877404 C123.86518,159.257212 121.284501,159.653846 117.909766,160.447115 C114.535032,161.240385 115.527601,162.231971 115.527601,162.231971 C115.527601,162.231971 116.718684,164.611779 120.68896,165.603365 C124.659236,166.594952 137.364119,166 138.356687,166 C139.349255,166 140.540339,164.016827 140.540339,164.016827 L140.54034,156.084135 L141.731423,140.417067 C141.731423,140.417067 142.922506,121.576923 142.922505,120.188702 C142.922505,118.800481 144.510616,113.644231 144.510616,113.644231 L158.208068,94.4074519 C158.208068,94.4074519 163.170911,90.8377404 165.950106,86.8713942" id="Path-507" stroke="#000000" sketch:type="MSShapeGroup"></path>
                <path d="M157.016985,95.5973558 C157.016985,96.390625 159.796178,118.998798 159.796178,118.998798 L160.987261,122.370192 L173.295117,147.358173 C173.295117,147.358173 168.927813,152.514423 164.163482,152.911058 C163.170913,153.50601 164.163482,155.489183 164.163482,155.489183 C164.163482,155.489183 176.272824,156.877404 186,149.539663 L182.228238,141.210337 L172.898089,118.998798 L172.699575,116.420673 L173.692144,91.8293269 C173.692144,91.8293269 174.287686,83.5 173.295117,79.1370192 C172.104034,76.1622596 170.118896,72.7908654 170.118896,72.7908654 L166.347134,57.5204327 L164.759023,46.8112981 C164.759023,46.8112981 165.354565,29.5576923 162.972399,26.3846154 C160.590234,23.2115385 159.002123,20.6334135 157.016985,20.0384615 C155.031847,19.4435096 150.069002,20.0384615 148.282378,18.8485577 C147.289809,19.8401442 140.341826,21.625 140.341826,21.625 L135.378981,25.1947115 L131.210191,28.3677885 C131.210191,28.3677885 122.872611,34.3173077 118.902335,39.671875 C116.321656,41.8533654 108.579618,46.6129808 108.579618,46.6129808 C108.579618,46.6129808 103.616773,46.0180288 101.830149,46.0180288 C100.043524,46.0180288 93.8895966,44.828125 93.8895966,44.828125" id="Path-508" stroke="#000000" sketch:type="MSShapeGroup"></path>
                <path d="M148.282378,19.4435096 C148.282378,19.4435096 144.70913,17.4603365 143.716561,15.0805288 C142.723992,12.7007212 142.525478,6.15625 140.341826,3.97475962 C138.158174,1.79326923 132.401274,-0.983173077 128.629512,2.38822115 C124.857749,5.75961538 121.085987,8.93269197 123.468153,14.6838942 C125.850318,20.4350965 127.835456,22.4182692 127.835456,22.4182692 C127.835456,22.4182692 130.416136,26.5829339 131.408705,26.5829327 C132.401274,26.5829315 133.79087,24.5997596 133.79087,24.5997596 L135.378981,25.3930288" id="Path-509" stroke="#000000" sketch:type="MSShapeGroup"></path>
                <path d="M117.5,40.5 C119,42.5 123,48.5 123,49.5" id="Path-512" stroke="#000000" sketch:type="MSShapeGroup"></path>
                <path d="M169.5,71.5 C166.5,72.5 147.5,74.5 142.5,74.5" id="Path-513" stroke="#000000" sketch:type="MSShapeGroup"></path>
            </g>
            <g id="Group-3" sketch:type="MSLayerGroup" transform="translate(0.000000, 180.000000)">
                <path d="M28,145 L28,147 L36,156.5 L41.5,159.5 L47.5,157 L50.5,154 L50,152 L43,149.5 L42,148 L43.5,147 L68,124 L70.5,120.5 L74.5,102 L88,118 L89,122.5 L93.5,154.5 L93.5,156 L96.5,158.5 L112.5,161 L115.5,161.5 L116.5,160 L116.5,158.5 L109.5,155.5 L106,152.5 L105,149 L103,120 L97.5,104.5 L91.5,91.5 L85,83 L84,80 L86,65 L87.5,59.5 L91.5,60.5 L93,59.5 L93.5,58.5 L96,60 L97.5,59.5 L102.5,51.5 L109,36 L112,29 L95.5,37 L90,45.5 L86.5,29.5 L89.5,32 L91.5,32 L99,22.5 L101,17.5 L102.5,13 L98.5,7 L91,3 L86.5,3.5 L82,7.5 L79,18 L76.5,23 L69.5,25 L64.5,30 L60.5,48.5 L57,76 L53.5,84 L53.5,94 L54,105 L53.5,118.5 L50,119.5 L33,140 L28,145 Z" id="Path-581" fill-opacity="0.166213768" fill="#000000" sketch:type="MSShapeGroup"></path>
                <path d="M17.5,1 L22.5,1 L26.5,2.5 L29,6 L28.5,17.5 L25.5,23.5 L31.5,25 L37,32.5 L38,45.5 L35.5,50.5 L33.5,52.5 C33.5,52.5 32.0400879,52.0133626 31.3101318,51.7700439 C31.0400879,51.6800293 30.5,51.5 30.5,51.5 L31,53 L32,67.5 L33.5,73.5 L31.5,104.5 L31.5,114.5 L30,125.5 L29,126 L28.5,131.5 L27.5,134.5 L23,135 L20,133 L22.5,127 L21.5,123 L22,112 L19,97.5 L18,110 L18.5,125 L19.5,129 L18.5,146 L17,147.5 L20,152 L25,155.5 L25,158 L20.5,160 L13.5,159 L8.5,155.5 L5,149 L3,137 L4.5,107.5 L4,89 C4,89 3,75.5 3,76 C3,76.5 4,66 4,66 L5.5,62 L6,53 L3,50 L0.5,42.5 L0,37.5 L0,28.5 L2.5,26 L12,22.5 L14,20 L13,16.5 L11.5,15 L12,11 L12,9 L14,3 L17.5,1 Z" id="Path-582" fill="#3F5365" sketch:type="MSShapeGroup"></path>
                <g id="Group" transform="translate(28.000000, 3.000000)" sketch:type="MSShapeGroup">
                    <path d="M29.4672229,72.3806542 C29.4672229,72.3806542 26.4632827,78.5315794 25.8911036,80.3911614 C25.3189245,82.2507435 24.7467454,88.8308029 25.4619693,92.1208327 C26.1771931,95.4108624 26.0341483,108.427937 26.0341484,108.427937 C26.0341484,108.427937 25.4619693,115.43713 25.4619693,115.72322 C25.4619693,116.009309 22.3149843,116.724533 22.3149843,116.724533 L5.29265654,137.179936 C5.29265654,137.179936 0.858268627,140.469965 0.572179085,141.042144 C0.286089542,141.614324 -1.14435844,142.758682 2.43176113,147.19307 C6.00788069,151.627458 8.43964171,154.059219 8.72573105,154.059219 C9.01182038,154.059219 11.4435814,156.061845 14.1614324,156.061845 C16.8792833,156.061845 20.455402,153.48704 20.4554023,153.48704 C20.4554026,153.48704 22.8871637,150.912234 22.8871637,150.912234 L21.8858503,149.338741 L14.8766565,146.334801 L13.5892533,145.190443 L15.4501487,144.476532 C15.4501487,144.476532 33.7598776,126.595936 37.1929521,123.305906 C40.6260266,120.015876 41.6260303,119.227817 42.3412523,116.724533 C43.0564743,114.22125 47.0643565,98.2730712 47.0643565,98.2730712 C47.0643565,98.2730712 50.211339,92.9804147 50.2113415,92.9804147 C50.211344,92.9804147 52.3570131,91.6930118 52.3570131,91.6930118 C52.3570131,91.6930118 54.2165969,93.409549 53.644416,93.409549 C53.0722351,93.409549 50.497431,94.2678176 50.497431,94.2678176" id="Path-515" stroke="#000000"></path>
                    <path d="M47.0000007,100 L57.503998,112.147101 L60.0788039,115.43713 L61.0801173,119.871518 L64.9423261,147.908293 L65.5145052,151.770502 C65.5145052,151.770502 64.4999988,154.000002 68.9999988,155.500002 C73.4999988,157.000002 85.4265063,158.500002 86.9999988,158.500002 C88.5734912,158.500002 88.4999988,156.500002 88.4999988,156.000002 C88.4999988,155.500002 84.9999988,154.500002 82.0419106,152.805621 C79.0838224,151.11124 78.0013122,149.002629 78.0013122,149.002629 L76.9999988,147.000002 L76.2428631,132.602503 L75.2415497,119.299339 L74.6693706,116.009309 L70.2349827,103.564414 L64.0840575,89.6890716 L59.7927144,83.3951016 L57.503998,80.677251 L56.5026846,78.5315794 C56.5026846,78.5315794 57.2179085,78.817669 56.5026846,78.817669 C55.7874608,78.817669 46.2034611,78.3885346 42.7703866,77.8163556 C39.3373121,77.2441765 29.7533124,73.9541467 29.4672229,73.3819676" id="Path-516" stroke="#000000"></path>
                    <path d="M71.5,18 L69,20.5 L67.5,23 L67.5,26 L68.5,28 L67.5,33 L67.5,34 L72,35 L74.5,36 L73.5,37.5 L78.5,39 L81.5,33 L84,26 L84,22.5 L82.5,20.5 L79,19.5 L78,19 L77.5,19.5 L75,18.5 L71.5,18 Z" id="Path-536" fill="#FF5454"></path>
                    <path d="M29.3241781,72.0945647 L30.8976706,58.6483562 C30.8976706,58.6483562 32.7572526,42.0551627 33.6155212,38.4790435 C34.4737899,34.9029242 35.618148,26.892417 39.1942673,23.6023873 C42.7703866,20.3123575 47.4908641,19.8832232 48.9213118,19.8832232 C50.3517595,19.8832232 55.0722369,22.1719395 56.0735503,23.4593425 C57.0748637,24.7467454 59.5066248,29.3241781 59.5066248,29.3241781 L60.7940278,37.0485958 L61.6522964,41.4829837 L61.2231621,46.2034611 L61.9383859,45.631282 L61.9383859,42.6273418 L67.0879977,34.1877003 L66.9449529,33.0433422 L68.3754007,28.4659095 L67.2310425,26.1771931 C67.2310425,26.1771931 67.2310425,22.0288948 68.6614902,20.5984471 C70.0919379,19.1679993 71.3793408,17.7375516 71.6654304,17.7375516 C71.9515199,17.7375516 75.0985049,18.3097307 76.0998183,18.8819098 C77.1011317,19.4540889 81.1063853,22.4580291 81.1063853,22.4580291 L81.3924748,24.0315216 L77.8163556,29.0380886 L73.811102,36.6194614 L72.6667438,39.9094912 L69.2336693,49.2074013 L64.0840575,57.2179085 L63.0827441,57.503998 L59.9357591,56.7887742 L57.0748637,54.6431026 L50.4948042,45.2021477 C50.4948042,45.2021477 50.4948042,45.4882373 50.2087147,44.4869239 C49.9226252,43.4856105 45.2021477,35.1890137 45.2021477,35.1890137 L43.3425657,29.3241781 L42.7703866,29.8963572" id="Path-517" stroke="#000000"></path>
                    <path d="M59.6496696,56.6457294 C59.6496696,56.6457294 57.7900876,62.0814307 57.7900876,62.510565 C57.7900876,62.9396993 56.0735503,74.2402363 56.0735503,74.2402363 L56.3596399,78.3885346" id="Path-518" stroke="#000000"></path>
                    <path d="M60.9370725,38.6220882 C59.5066248,38.3359987 54.5000578,39.7664464 54.2139683,39.7664464 C53.9278788,39.7664464 49.4934908,42.3412525 49.4934908,42.7703866" id="Path-519" stroke="#000000"></path>
                    <path d="M64.9423261,55.3583265 C64.9423261,55.644416 67.8032216,57.0748637 67.8032216,57.0748637 L68.804535,56.7887742 C68.804535,56.7887742 72.0945647,52.2113415 73.0958781,50.4948042 C74.0971915,48.778267 78.5315794,39.1942673 78.5315794,38.9081778 C78.5315794,38.6220882 87.2573105,23.3162976 82.3937882,21.0275814 C77.530266,18.7388651 78.6746242,18.8819098 77.3872212,19.4540889" id="Path-520" stroke="#000000"></path>
                    <path d="M78.6746242,38.9081778 C77.530266,38.9081778 73.2389229,37.3346853 73.2389229,37.3346853" id="Path-521" stroke="#000000"></path>
                    <path d="M73.9541467,35.7611928 C73.9541467,35.7611928 69.3767141,33.6155212 67.2310425,33.9016108" id="Path-522" stroke="#000000"></path>
                    <path d="M48.6352222,19.4540889 C48.6352222,19.4540889 50.4948042,16.5931935 50.9239386,15.019701 C51.3530729,13.4462085 51.8904498,7.72441755 55.0722369,3.43307451 C58.2540241,-0.858268534 62.510565,-0.572179085 65.65755,0.715223856 C68.804535,2.0026268 75.5276392,8.15355148 74.2402363,11.872716 C72.9528333,15.5918805 71.0932513,17.4514621 71.0932513,17.4514621 L70.9502065,18.3097307" id="Path-523" stroke="#000000"></path>
                    <path d="M67.3740873,24.3176111 C67.3740873,24.3176111 64.0840575,28.8950438 63.2257889,29.1811333 C62.3675203,29.4672229 61.5092516,29.3241781 60.650983,28.6089542 C59.7927144,27.8937304 58.5053114,26.3202379 58.2192219,25.4619693" id="Path-524" stroke="#000000"></path>
                    <path d="M59.0774905,11.5866265 C59.0774905,11.5866265 58.2192219,8.86877582 56.2165951,9.58399967 C54.2139683,10.2992235 55.2152817,14.8766562 55.5013712,15.8779696 C55.7874608,16.879283 57.0748637,16.879283 57.0748637,16.879283" id="Path-525" stroke="#000000"></path>
                </g>
                <g id="Group" transform="translate(0.000000, 0.470549)" sketch:type="MSShapeGroup">
                    <path d="M9.26829268,30.6389813 L10.195122,32.9234641 L14.3658537,34.2941538 L15.2926829,33.8372572 L18.0731707,26.5269124 L19,24.2424296 L20.3902439,24.6993262 L22.7073171,23.3286365 L21.7804878,20.1303606 L21.3170732,18.3027744 L17.1463415,16.9320848 L14.8292683,18.3027744 L13.4390244,19.2165675 L9.26829268,30.6389813 Z" id="Path-537" fill="#FF5454"></path>
                    <path d="M28.2682927,17.8458779 L28.2682927,19.6734641 L29.195122,21.9579469 L31.0487805,24.6993262 L31.5121951,26.0700158 L31.5121951,31.5527744 L32.902439,32.009671 L37.0731707,31.5527744 L37.0731707,25.1562227 L37.5365854,22.87174 L37.0731707,17.8458779 L36.6097561,15.5613951 L34.2926829,14.647602 L33.3658537,14.1907055 L30.1219512,15.5613951 L28.7317073,16.0182917 L28.2682927,17.8458779 Z" id="Path-538" fill="#FF5454"></path>
                    <path d="M3.68577237,66.7230061 C3.68577237,67.9343163 2.86671184,73.889925 2.86671184,76.1106605 C2.86671184,78.3313959 3.8905375,90.1416708 3.8905375,90.1416708 L4.30006776,108.614152 C4.30006776,108.614152 2.86671184,134.354495 2.86671184,136.979 C2.86671184,139.603506 5.22151085,149.092103 5.22151085,149.092103 C5.22151085,149.092103 7.4739273,154.341114 9.52157861,156.057137 C11.5692299,157.77316 16.6883582,159.287297 19.0431572,159.287297 C21.3979562,159.287297 25.2884937,157.470332 25.2884937,157.470332 L25.3908763,155.350539 C25.3908763,155.350539 18.8383921,151.010011 16.8931233,147.477023 C17.7121839,146.770425 18.4288618,145.660057 18.4288618,145.660057 L19.3503049,128.701714 L18.4288618,124.260243 L17.916949,109.825462 L19.2479224,93.6746591 L18.9407747,88.1228204 L17.4050362,85.3973724 L17.916949,83.782292 L19.7598352,91.4539236 L19.6574526,99.9330953 L22.1146342,111.844313 L21.2955737,123.048933 L22.2170168,126.783806 L20.3741306,132.638472 L22.2170168,134.657322 C22.2170168,134.657322 26.2099368,135.061092 27.5409102,133.849782 C28.8718835,132.638472 29.1790312,128.096059 29.1790312,126.279093 C29.1790312,124.462128 30.1004743,125.168725 30.1004743,125.168725 L31.8409779,114.569761 L31.3290651,104.374566 L32.2505082,93.1699465 C32.2505082,93.1699465 33.5814816,76.413488 33.5814816,74.0918101 C33.5814816,71.7701321 31.7385954,66.2182935 31.7385954,66.2182935 C31.7385954,66.2182935 31.0219174,53.4995359 31.0219174,51.379743" id="Path-526" stroke="#000000"></path>
                    <path d="M31.8409779,66.6220636 C29.8957092,67.6314888 22.3193993,68.7418565 19.4526875,68.7418565 C16.5859756,68.7418565 3.78815493,66.8239486 3.78815493,66.8239486 L5.32389342,60.8683399 L5.93818881,52.9948233" id="Path-527" stroke="#000000"></path>
                    <path d="M9.31681348,30.9893538 C9.52157861,31.6959514 10.6477868,33.1091467 11.2620822,33.3110318 C11.8763776,33.5129168 14.7430895,34.320457 14.9478546,34.320457 C15.1526197,34.320457 16.6883582,30.1818136 16.6883582,30.1818136 C16.6883582,30.1818136 18.4288618,26.0431703 18.4288618,25.7403427 C18.4288618,25.4375152 18.8383921,24.3271475 18.8383921,24.5290325 C18.8383921,24.7309175 20.3741306,25.0337451 20.3741306,25.0337451 C20.3741306,25.0337451 22.4217819,23.8224349 22.4217819,23.6205498 C22.4217819,23.4186648 22.4217819,20.3903891 21.8074865,19.3809639 C21.1931911,18.3715387 17.5074187,16.9583435 17.0978885,17.261171 C16.6883582,17.5639986 13.3097335,19.4819065 13.3097335,19.4819065 C13.3097335,19.4819065 12.5930556,20.9960443 12.2859079,22.106412 C11.9787602,23.2167797 9.11204835,30.2827562 9.31681348,30.9893538 Z" id="Path-528" stroke="#000000"></path>
                    <path d="M28.769501,15.9489182 C28.1552056,16.6555159 27.7456753,19.3809639 27.7456753,19.3809639 C27.7456753,19.3809639 28.1552056,21.3998144 28.3599707,21.6016994 C28.5647358,21.8035844 31.1083668,26.263097 31.2266825,24.629975 C31.3449983,22.996853 31.3290651,31.6959514 31.3290651,31.6959514 L32.8648036,32.3016066 L37.472019,31.5950089 L37.3696365,25.6394002 C37.3696365,25.6394002 37.7791667,23.1158372 37.7791667,22.6111246 C37.7791667,22.106412 37.6767842,16.7564584 36.2434283,15.4442056 C34.8100723,14.1319529 33.2743339,14.0310104 33.2743339,14.0310104 C33.2743339,14.0310104 29.3837964,15.2423206 28.769501,15.9489182 Z" id="Path-529" stroke="#000000"></path>
                    <path d="M37.0624888,31.5950089 C37.0624888,31.5950089 37.9839319,38.1562728 37.9839319,38.4591003 C37.9839319,38.7619279 38.4958447,44.9194216 37.7791667,46.1307319 C37.0624888,47.3420421 36.0386631,49.4618351 36.0386631,49.8656051 C36.0386631,50.2693752 33.5814816,51.9853981 33.5814816,51.9853981 L31.5338302,51.6825705 C31.5338302,51.6825705 28.3599707,48.8561799 28.3599707,48.8561799 C28.3599707,48.8561799 27.336145,45.3231917 28.2575881,42.6986862 C29.1790312,40.0741807 31.4314475,31.796894 31.4314477,31.5950089" id="Path-530" stroke="#000000"></path>
                    <path d="M14.5383243,34.2195145 L13.9240289,38.5600428 C13.9240289,38.5600428 13.207351,45.5250768 11.6716125,48.3514673 C10.135874,51.1778579 6.96201447,53.4995359 6.96201447,53.4995359 L6.14295394,52.9948233 C6.14295394,52.9948233 3.37862467,51.2788004 2.45718158,48.7552374 C1.53573849,46.2316744 0.204765131,40.9826633 0.204765131,40.9826633 C0.204765131,40.9826633 0.102382566,38.4591003 0.102382566,38.4591003 C0.102382566,38.4591003 3.2762421,37.4496751 6.14295394,38.3581578 C5.63104111,38.7619279 3.2762421,41.4873759 3.2762421,41.4873759 L3.78815493,41.4873759 L6.75724934,37.4496751 L9.62396118,31.3931239" id="Path-531" stroke="#000000"></path>
                    <path d="M0,38.3581578 L0,30.9893538 C0,29.7780436 0.511912829,26.6488254 1.74050362,25.9422278 C2.96909441,25.2356301 8.60013552,23.4186648 8.60013552,23.4186648 L12.1835253,22.4092396" id="Path-532" stroke="#000000"></path>
                    <path d="M17.4050362,28.1629632 C18.3264793,28.7686184 21.5003388,28.2639058 22.2170168,28.2639058 C22.9336947,28.2639058 26.0051717,25.4375152 26.0051717,22.8130096 C28.2575881,23.9233774 30.3052394,24.3271475 30.3052394,24.3271475" id="Path-533" stroke="#000000"></path>
                    <path d="M13.7192638,19.0781364 L13.3097335,16.1508033 C13.3097335,16.1508033 11.8763776,15.6460907 11.6716125,14.6366655 C11.4668474,13.6272403 11.5692299,10.9017922 11.5692299,10.9017922 C11.5692299,10.9017922 12.5930556,9.08482685 13.6168812,9.99330953" id="Path-534" stroke="#000000"></path>
                    <path d="M11.9787602,10.2961371 C11.9787602,10.2961371 11.9787602,6.8640914 12.5930556,5.55183863 C13.207351,4.23958586 14.0264115,1.00942521 17.200271,0.302827562 C20.3741306,-0.403770082 25.4932589,0.403770082 27.0289973,2.22073545 C28.5647358,4.03770082 29.5885615,5.55183874 29.5885615,8.17634416 C29.5885615,10.8008496 29.0766487,12.8197001 29.0766487,12.8197001 L28.3599707,15.0404356 L28.4623533,15.8479757 L27.5409102,19.4819065 L25.9027891,22.7120671 C25.9027891,22.7120671 24.6741983,25.6393996 22.7289296,25.8412853 C20.7836608,26.043171 19.0431572,24.7309175 19.0431572,24.7309175" id="Path-535" stroke="#000000"></path>
                </g>
            </g>
            <g id="Group-4" sketch:type="MSLayerGroup" transform="translate(7.000000, 360.000000)">
                <path d="M18.5,132 L18,154.5 L18,159 L18,160.5 L20.5,162.5 L35,163 L43.5,161 L46,158.5 L45,157 L33.5,154 L31.5,130 L34,117 L34.5,108 L31,98.5 L32.5,87.5 L32,75.5 L30,69 L31.5,63.5 L33.5,63.5 L39,58 L44,46.5 L46.5,40.5 L48,37.5 L52,34 L52.5,30.5 L49,27.5 L55.5,26.5 L63,23.5 L74,17 L84.5,12 L87.5,11.5 L89,9.5 L84.5,3 L80.5,2.5 L77,5 L70.5,12 L53.5,18 L47.5,19.5 L41,20 L42.5,12 C42.5,12 42.5,5.5 39,3.5 C35.5,1.5 28.5,-1 24,3 C19.5,7 20,15.5000009 20.5,17.5 C21,19.4999991 20.5,20.5 20.5,20.5 L19,23 L17.5,23.5 L10.5,28.5 L6.5,32.5 L5,37 L4,43 L5,50.5 L4,59.5 L2.5,65.5 L0,72 L0,77 L3,84.5 L14.5,110.5 L6.5,127 L3.5,131 L2,133 L2.5,137 L9.5,149 L11,151 L12.5,151 L17,149.5 C17,149.5 18.5,145.500001 17,142.5 C15.5,139.499999 14,136 14,136 L18.5,132 Z" id="Path-576" fill-opacity="0.166213768" fill="#000000" sketch:type="MSShapeGroup"></path>
                <path d="M71,12 L74,17 L79.5,14.5 L84,12 L87,11.5 L88.5,10 L88.5,8 L86.5,5.5 L84.5,3 L82.5,2 L80,3 L76.5,5 L71,12 Z" id="Path-539" fill="#FF5454" sketch:type="MSShapeGroup"></path>
                <path d="M38,42 L39,35.5 L38,30.5 L39,26.5 L42,24.5 L43.5,24.5 L49,27.5 L52.5,30.5 L52.5,32.5 L50,35.5 L48,38 L44.5,44.5 L38,42 Z" id="Path-540" fill="#FF5454" sketch:type="MSShapeGroup"></path>
                <g id="Group" transform="translate(0.000000, 1.000000)" stroke="#000000" sketch:type="MSShapeGroup">
                    <path d="M2.73846154,64.5254237 C2.73846154,64.5254237 -2.73846154,72.4194915 1.54038462,80.8283898 C5.81923077,89.2372881 18.65577,117.724576 18.6557692,118.411017 C18.6557685,119.097458 16.9442308,151.016949 18.1423077,156.336864 C18.1423083,157.366525 16.6019225,159.425847 18.9980769,160.627119 C21.3942314,161.82839 31.3211533,161.82839 34.0596154,161.82839 C36.7980775,161.82839 42.6173097,160.798729 45.0134615,158.567797 C46.2115385,157.023305 46.040384,156.508475 43.1307692,155.993644 C40.2211544,155.478814 35.4288456,153.934322 33.2038462,152.733051 C32.3480769,146.211864 31.4923071,129.908898 31.8346154,128.192797 C32.1769237,126.476695 35.4288456,110.860169 34.0596154,106.398305 C32.6903852,101.936441 25.1596148,82.2012712 25.1596154,82.2012712 C25.159616,82.2012712 24.3038462,78.7690678 24.3038462,78.7690678 L26.3576923,76.8813559" id="Path-455"></path>
                    <path d="M15.5000001,108.5 C15.5000001,108.5 8.43383379,123.662124 6.03998941,126.862426 C5.24204129,128.462577 1.95212852,129.657918 1.95212852,132.85822 C1.95212852,136.058522 2.70582038,136.111483 4.3729049,139.636991 C6.03998941,143.1625 11.1498155,150.367626 11.1498155,150.367626 C11.1498155,150.367626 16.9405884,149.101901 17.9380235,147.301731 C18.9354587,145.501561 13.9482828,136.038242 13.9482828,135.038148 C15.743666,132.237883 17.9380231,131.376643 17.9380231,131.376643" id="Path-456"></path>
                    <path d="M31.3211538,97.6461864 C31.3211538,97.6461864 32.5192308,88.5508475 32.5192308,84.7754237 C32.5192308,81 31.3211538,70.3601695 30.4653846,68.6440678 C27.8980769,69.6737288 21.0519231,70.7033898 16.4307692,70.0169492 C11.8096154,69.3305085 3.59423077,65.5550847 2.56730769,64.6970339" id="Path-457"></path>
                    <path d="M9.41346154,45.3050847 C9.92692308,45.3050847 20.7096154,57.1461864 23.9615385,59.2055085 C27.2134615,61.2648305 29.7807692,62.809322 32.0057692,62.809322 C34.2307692,62.809322 40.2211538,57.4894068 44.1576923,44.1038136 C45.5269231,42.0444915 47.4096154,37.4110169 48.0942308,36.7245763 C48.7788462,36.0381356 54.2557692,31.2330508 51.8596154,29.345339 C49.4634615,27.4576271 44.3288462,22.9957627 42.4461538,23.3389831 C40.5634615,23.6822034 38.8519231,25.5699154 38.8519231,26.5995763 C38.8519231,27.6292372 37.825,29.8601693 38.1673077,30.7182203 C38.5096154,31.5762714 39.0230769,34.1504242 39.0230769,34.4936441 C39.0230769,34.8368639 37.4826923,41.3580508 37.4826923,41.3580508 C37.4826923,41.3580508 42.4461538,42.5593225 43.8153846,43.7605932" id="Path-458"></path>
                    <path d="M37.6538462,41.529661 C37.6538462,41.529661 33.7173077,47.3644068 32.5192308,48.565678 C32.5192308,49.9385593 31.4923077,48.3940678 31.4923077,48.3940678 C31.4923077,48.3940678 26.7,42.7309322 24.8173077,39.1271186" id="Path-459"></path>
                    <path d="M30.4653846,46.8495763 C30.4653846,46.8495763 23.9615385,54.2288136 20.7096154,55.9449153" id="Path-460"></path>
                    <path d="M2.73846154,64.8686441 C2.73846154,64.8686441 4.79230769,55.2584746 4.79230769,50.9682203 C4.79230769,46.6779661 3.59423077,34.3220339 6.84615385,30.8898305 C10.0980769,27.4576271 14.7192308,23.8538136 17.8,22.4809322 C17.6288462,25.3983051 19.5115385,27.8008475 21.2230769,29.1737288 C22.9346154,30.5466102 27.7269231,36.7245763 30.6365385,34.8368644 C33.5461538,32.9491525 31.4923077,28.315678 31.4923077,28.315678 L33.375,26.2563559 C33.375,26.2563559 36.1134615,26.7711864 37.3115385,26.7711864 C38.8519231,25.2266949 41.0769231,21.1080508 41.9326923,15.2733051 C42.7884615,9.43855932 42.6173077,4.46186441 38.3384615,2.05932203 C34.0596154,-0.343220339 25.5019231,-1.71610169 22.4211538,3.77542373 C19.3403846,9.26694915 19.8538462,15.6165258 20.5384615,18.5338983 C20.8807692,19.9067797 18.6557692,22.309322 18.6557692,22.309322" id="Path-461"></path>
                    <path d="M32.0640507,21.2050088 C33.4101583,23.1058146 36.1134619,25.5699155 36.1134619,25.5699155" id="Path-462"></path>
                    <path d="M41.2480769,19.0487288 L47.0673077,18.3622881 C47.0673077,18.3622881 50.8326923,23.8538136 48.7788462,26.7711864" id="Path-463"></path>
                    <path d="M47.5807692,18.7055085 L53.7423077,17.3326271 L70.8576923,10.8114407 C70.8576923,10.8114407 77.1903846,3.08898305 79.9288462,2.05932203 C82.6673077,1.02966102 84.0365385,0.858050847 85.7480769,3.60381356 C87.4596154,6.34957627 90.7115385,8.58050899 87.4596154,10.4682203 C86.2615385,11.154661 84.0365385,10.9830508 84.0365385,10.9830508 L79.4153846,13.7288136 L73.9384615,16.1313559 L71.0288462,11.4978814" id="Path-464"></path>
                    <path d="M73.425,16.3029661 C73.425,16.3029661 64.0115385,22.309322 60.4173077,23.8538136 C56.8230769,25.3983051 54.0846154,25.7415254 54.0846154,25.7415254 L49.2923077,26.9427966" id="Path-465"></path>
                    <path d="M34.0596154,13.9004237 C34.0596154,13.9004237 33.5461538,12.3559322 32.0057692,12.5275424 C30.4653846,12.6991525 28.925,16.8177969 30.4653846,18.7055085 C32.0057692,20.59322 32.5192308,19.7351695 32.5192308,19.7351695" id="Path-466"></path>
                    <path d="M30.2942308,68.9872881 L31.3211538,62.809322" id="Path-467"></path>
                </g>
            </g>
            <g id="Group-5" sketch:type="MSLayerGroup" transform="translate(1.000000, 541.000000)">
                <path d="M55.2130682,155.002874 L70.0965909,160.281609 L72.9772727,159.801724 L73.4573864,157.402299 L72.0170455,155.002874 L65.7755682,151.643678 L63.8551136,134.847701 L62.8948864,119.011494 L54.7329545,94.0574713 L48.4914773,79.6609195 L51.3721591,57.5862069 L55.2130682,60.4655172 L57.6136364,59.5057471 L59.0539773,56.6264368 L63.8551136,59.0258621 L67.2159091,59.0258621 L69.1363636,55.6666667 L74.4176136,41.75 L75.3778409,35.9913793 L77.2982955,29.2729885 L77.2982955,26.8735632 L70.5767045,24.4741379 L67.6960227,24.4741379 L65.7755682,25.9137931 L63.8551136,25.433908 L60.9744318,27.3534483 L59.5340909,31.1925287 L59.0539773,35.9913793 L58.5738636,39.8304598 L57.1335227,42.7097701 L51.3721591,36.4712644 L49.9318182,35.5114943 L50.8920455,30.7126437 L53.7727273,32.1522989 L56.6534091,32.1522989 L59.0539773,27.3534483 L60.4943182,19.1954023 L59.5340909,11.9971264 L56.6534091,8.63793103 C56.6534091,8.63793103 48.4914773,6.7183908 45.1306818,9.11781609 C41.7698864,11.5172414 40.8096591,13.4367814 41.2897727,18.2356322 C41.7698864,23.034483 41.7698864,23.5143678 41.7698864,23.5143678 L41.2897727,28.3132184 L35.5284091,30.2327586 L33.6079545,31.6724138 L31.2073864,36.4712644 L29.2869318,44.6293103 L28.3267045,54.7068966 L25.9261364,76.3017241 L22.0852273,82.0603448 C22.0852273,82.0603448 19.6846591,88.7787391 20.6448864,91.658046 C21.6051136,94.5373529 22.0852273,97.4166667 22.0852273,97.4166667 L23.0454545,119.491379 L23.0454545,122.850575 L19.6846591,125.729885 L2.88068182,152.123563 L2.88068182,154.043103 L0.960227273,157.882184 L0.480113636,160.761494 L12.9630682,166.04023 L17.2840909,166.04023 L21.6051136,164.12069 L22.5653409,161.721264 L22.0852273,160.761494 L16.3238636,159.321839 L33.1278409,133.887931 L36.4886364,127.16954 L39.3693182,112.772989 L41.7698864,105.574713 L49.4517045,125.25 L49.4517045,128.12931 L54.2528409,152.123563 L55.2130682,155.002874 Z M67.2159091,35.9913793 L66.2556818,36.4712644 L62.8948864,47.5086207 L63.375,48.4683908 L67.6960227,40.7902299 L67.2159091,35.9913793 Z" id="Path-577" fill-opacity="0.166213768" fill="#000000" sketch:type="MSShapeGroup"></path>
                <path d="M58.09375,40.3103448 L60.9744318,40.3103448 L63.8551136,41.2701149 L64.3352273,41.2701149 L66.2556818,36.9511494 L67.6960227,35.9913793 L67.6960227,40.7902299 L73.9375,42.7097701 L75.3778409,35.9913793 L77.7784091,29.2729885 L77.2982955,26.8735632 L71.0568182,24.4741379 L68.1761364,23.9942529 L66.2556818,25.9137931 L65.7755682,26.3936782 L63.8551136,25.433908 L61.4545455,26.8735632 L60.0142045,28.7931034 L59.5340909,31.1925287 L59.0539773,35.0316092 L59.0539773,36.4712644 L58.09375,40.3103448 Z" id="Path-562" fill="#FF5454" sketch:type="MSShapeGroup"></path>
                <g id="Group" transform="translate(0.664616, 0.186878)" stroke="#000000" sketch:type="MSShapeGroup">
                    <g id="Path-507-+-Path-508" transform="translate(96.022727, 68.629962)">
                        <path d="M25.6956828,8.85547891 L19.495214,28.8019087 L14.6510979,40.7643426 L13.6822747,45.0090773 L13.48851,57.3573962 C13.48851,57.3573962 13.4885093,83.211689 13.4885093,87.6493661 C8.25686471,89.9646759 5.73792434,90.3505608 2.44392542,91.1223308 C-0.850073505,91.8941007 0.118749708,92.8588131 0.118749708,92.8588131 C0.118749708,92.8588131 1.28133755,95.1741229 5.15663041,96.1388353 C9.03192328,97.1035478 21.4328604,96.5247203 22.4016829,96.5247203 C23.3705054,96.5247203 24.5330939,94.5952955 24.5330939,94.5952955 L24.5330947,86.8775961 L25.6956825,71.63514 C25.6956825,71.63514 26.8582711,53.3056041 26.8582704,51.9550067 C26.8582697,50.6044093 28.4083875,45.5879047 28.4083875,45.5879047 L41.7781479,26.8724839 C41.7781479,26.8724839 46.8545789,23.5622903 49.5672862,19.7034406" id="Path-507"></path>
                        <path d="M41.0601097,27.3793662 C41.0601097,28.2209056 44.0180482,52.2047775 44.0180482,52.2047775 L45.2857362,55.7813198 L58.3851783,82.2898098 C58.3851783,82.2898098 53.7369892,87.7598156 48.6662374,88.1805853 C47.6098307,88.8117398 48.6662374,90.9155882 48.6662374,90.9155882 C48.6662374,90.9155882 61.5543982,92.3882821 71.9071831,84.604043 L67.892838,75.7678797 L57.9626157,52.2047775 L57.7513343,49.4697745 L58.807741,23.3820542 C58.807741,23.3820542 59.5696549,15.0543141 58.8077405,10.1838007 C58.0458262,5.31328725 55.5687079,0.221386871 55.5687079,0.221386871" id="Path-508"></path>
                        <path d="M56.4578072,2.4352567 C52.9014099,4.42773946 35.3416982,8.19131801 26.8952546,8.19131801" id="Path-561"></path>
                    </g>
                    <path d="M45.1217908,96.0819464 L43.3435922,97.8530421 L38.231271,114.235678 L35.5639731,127.076123 C35.5639731,127.076123 32.2298506,134.60328 31.5630261,135.488828 C30.8962016,136.374375 16.2260627,158.070299 16.2260627,158.070299 L15.3369634,159.398621 C15.3369634,159.398621 20.6715593,160.94833 21.3383838,160.94833 C22.0052083,160.94833 21.7829335,162.055264 21.7829335,162.055264 C21.7829335,162.055264 20.4492845,165.376069 15.3369634,165.818843 C10.2246423,166.261617 2.88957281,162.055264 1.11137416,161.169716 C-0.666824495,160.284169 -0.222274832,158.070299 1.11137416,155.856429 C2.44502315,153.642559 2.44502315,151.650077 2.44502315,151.650077 L18.6710859,125.747801 L22.6720328,122.426996 L22.2274832,118.663418 L21.5606587,96.7461073 C21.5606587,96.7461073 19.3379101,89.6617241 20.4492845,85.6767586 C21.560659,81.6917931 23.5611319,77.9282146 25.3393308,75.7143448 C28.6734533,76.3785057 43.1213171,80.5848582 48.0113636,79.6993103 C49.3450126,81.6917931 51.7900358,88.3334023 51.7900358,88.3334023 L54.0127841,93.8680766 L59.7919297,110.693487 L62.4592277,119.548966 L64.2374263,144.565693 L65.5710753,151.650077 L70.9056713,154.30672 C70.9056713,154.30672 74.0175187,156.741977 72.4615951,158.955847 C71.1279461,160.726943 68.4606479,159.620008 68.4606481,159.620008 C68.4606484,159.620008 59.5696549,156.52059 59.5696549,156.52059 L55.1241582,154.970881 C55.1241582,154.970881 53.5682341,154.30672 53.1236848,150.985916 C52.6791354,147.665111 48.6781881,127.740284 48.6781881,127.740284 L48.6781881,125.526414 L40.8985693,105.822973" id="Path-541"></path>
                    <path d="M25.3393308,75.4929579 C25.3393308,75.4929579 27.3398043,62.4311264 27.5620791,59.3317088 C27.784354,56.2322912 28.8957281,40.95659 30.0071023,37.8571724 C31.1184764,34.7577548 32.2298506,30.7727893 35.5639731,29.6658544 C38.8980955,28.5589195 40.6762942,28.1161456 40.6762942,28.1161456 L48.6781881,35.2005287 L50.4563868,36.0860766 L56.2355324,42.5062989" id="Path-542"></path>
                    <path d="M40.6762942,28.1161456 C40.6762942,28.1161456 41.3431187,23.9097931 41.3431187,23.0242452 C41.3431187,22.1386973 40.3428819,17.9323448 40.6762942,15.0543142 C41.0097064,12.1762835 42.2322182,8.63409195 47.7890888,7.74854406 C53.3459595,6.86299617 58.6805557,9.51963985 59.3473801,13.0618314 C60.0142044,16.604023 59.7919297,19.7034406 59.7919297,19.7034406 C59.7919297,19.7034406 58.4582809,28.3375322 55.5687079,32.1011111 C54.0127841,32.3224981 52.2345856,32.3224977 50.0118371,30.7727893 C50.011837,31.6583376 49.1227379,34.9791414 49.1227378,35.2005287" id="Path-543"></path>
                    <path d="M34.8971486,42.2849119 L34.4525989,41.177977 L36.8976221,44.0560077 L45.1217908,53.7970345 C45.1217908,53.7970345 52.0123106,58.6675479 53.3459596,59.5530958 C54.6796086,60.4386437 57.1246317,59.7744828 57.1246317,59.3317088 C57.1246317,58.8889349 60.2364794,53.3542605 61.3478535,50.4762299 C62.4592277,47.5981992 63.7928767,41.399364 63.7928767,41.399364 L65.3488005,36.7502375 L68.0160985,34.7577548 C68.0160985,34.7577548 69.1274726,34.3149808 69.3497475,34.3149808 C69.5720223,34.3149808 70.4611216,32.5438851 70.6833965,31.6583372 C70.9056713,30.7727893 70.4611216,28.7803065 69.5720223,28.3375326 C68.682923,27.8947586 63.5706019,25.4595019 63.1260522,25.4595019 C62.6815025,25.4595019 60.4587542,26.5664368 59.5696549,28.3375326 C58.6805556,30.1086284 58.4582807,34.0935939 58.4582807,34.0935939 L58.6805556,35.8646897 L57.5691814,40.0710421 C57.5691814,40.0710421 52.6791351,47.5981992 52.6791351,48.9265211 C52.4568603,47.3768123 52.4568603,46.4912644 52.4568603,46.4912644 L47.566814,37.1930115" id="Path-544"></path>
                    <path d="M50.6786616,43.1704598 C49.1227378,43.3918467 43.3435922,46.2698774 41.7876684,49.590682" id="Path-545"></path>
                    <path d="M58.6805556,56.4536782 C58.6805556,56.4536782 62.014678,58.2247739 63.1260522,58.4461609 C64.2374263,58.6675479 66.6824495,58.6675479 66.6824495,58.6675479 L67.7938237,56.8964521 C67.7938237,56.8964521 72.9061448,42.7276858 72.9061448,42.5062989 C72.9061448,42.2849119 74.2397938,36.9716245 74.2397938,36.9716245 L75.5734428,33.429433 C75.5734428,33.429433 77.5739162,28.3375326 76.6848169,27.2305977 C75.7957176,26.1236628 70.4611216,24.1311801 68.682923,24.1311801 C66.9047243,24.1311801 65.5710753,25.016728 65.3488005,25.9022759" id="Path-546"></path>
                    <path d="M66.6824495,35.8646897 L66.9047243,40.95659 C66.9047243,40.95659 63.1260522,47.3768123 62.4592277,49.369295" id="Path-547"></path>
                    <path d="M67.1269992,40.7352031 C67.1269992,40.7352031 70.9056713,42.2849119 72.9061448,42.2849119" id="Path-548"></path>
                    <path d="M57.5691814,39.8496552 C58.9028304,40.0710421 62.4592277,40.0710421 63.7928767,41.620751" id="Path-549"></path>
                    <path d="M47.566814,79.4779234 C48.2336385,76.3785057 49.5672875,66.416092 50.0118371,64.4236092 C50.4563868,62.4311264 51.1232113,57.3392261 51.1232113,57.3392261" id="Path-550"></path>
                    <path d="M128.030303,19.9248276 C126.252104,20.1462146 120.472959,22.5814713 117.805661,25.2381149 C115.138363,27.8947586 112.69334,29.0016935 110.915141,30.9941762 C109.136942,32.986659 105.135995,39.1854943 104.024621,42.0635249 C102.913247,44.9415556 100.023674,49.590682 100.023674,49.590682 L98.2454756,52.2473257 L97.5786511,52.9114866 L98.2454756,51.3617778 L97.3563763,47.5981992 L95.3559028,39.1854943 C95.8004524,37.6357854 95.8004524,35.4219157 95.8004524,35.4219157 L97.5786511,32.986659 L98.6900253,29.6658544 L98.4677504,27.0092107 L96.9118266,24.1311801 C96.9118266,24.1311801 94.9113531,21.9173103 93.3554293,23.0242452 C91.7995055,24.1311801 88.9099327,27.0092107 88.465383,28.1161456 C88.0208333,29.2230805 88.9099327,32.3224981 89.3544823,34.0935939 C89.799032,35.8646897 90.2435816,41.399364 90.2435816,41.399364 C90.2435816,41.399364 90.4658565,51.1403908 90.9104061,53.1328736 C91.3549558,55.1253563 92.6886046,61.9883525 94.0222538,63.0952874 C95.355903,64.2022222 96.9118264,65.0877701 97.5786511,64.8663831 C98.2454758,64.6449962 101.801874,63.0952874 103.357797,61.7669655 C104.91372,60.4386437 108.247842,57.560613 111.35969,53.7970345 C114.471538,50.0334559 118.917035,44.0560077 118.917035,44.0560077" id="Path-551"></path>
                    <path d="M114.249263,50.4762299 C115.138363,52.4687126 118.472485,60.6600307 119.13931,62.4311264 C119.806134,64.2022222 121.584333,69.2941226 121.806608,70.4010575 C122.028883,71.5079923 122.695707,75.0501839 122.473432,75.7143448 C122.251157,76.3785057 122.251157,77.4854406 122.251157,77.4854406" id="Path-552"></path>
                    <path d="M127.363479,19.9248276 C126.252104,19.0392797 124.473906,16.82541 124.029356,14.3901533 C123.584806,11.9548966 124.251631,6.42022222 121.139783,3.09941762 C118.027936,-0.221386973 112.471065,-1.32832184 108.914668,1.10693487 C105.35827,3.54219157 101.801873,6.64160987 102.690972,12.1762835 C103.580072,17.7109572 103.135522,15.7184751 103.135522,15.7184751 C103.135522,15.7184751 105.35827,22.5814719 106.469644,24.573954 C107.581018,26.5664361 108.470118,28.1161446 109.136942,28.1161456 C109.803767,28.1161466 113.582439,27.2305984 114.471538,26.7878238 C114.693813,27.0092107 114.916088,27.2305977 114.916088,27.2305977" id="Path-553"></path>
                    <path d="M109.136942,33.429433 C109.136942,33.429433 104.691446,27.2305977 104.246896,26.1236628 C103.802346,25.016728 101.579598,20.1462146 99.1345749,19.4820536 C96.6895518,18.8178927 94.0222538,21.4745364 93.3554293,22.8028582" id="Path-554"></path>
                    <path d="M95.8004524,41.399364 C94.6890783,41.177977 91.3549558,41.177977 90.4658565,42.7276858" id="Path-555"></path>
                    <path d="M105.135995,39.6282682 C105.135995,39.6282682 102.246423,33.8722069 101.801873,32.765272 C101.357323,31.6583372 100.690499,31.2155632 100.690499,31.2155632 L98.6900253,30.5514023" id="Path-556"></path>
                    <path d="M106.24737,29.8872414 C105.35827,30.1086284 102.246423,33.429433 102.246423,33.6508199" id="Path-557"></path>
                    <path d="M128.252578,19.9248276 C129.586227,20.3676015 134.920823,21.9173103 136.254472,22.5814713 C137.588121,23.2456322 141.811343,26.7878238 143.144992,30.3300153 C144.478641,33.8722069 145.590015,45.1629425 146.034564,47.8195862 C146.479114,50.4762299 147.145939,59.5530958 147.812763,61.1028046 C148.479588,62.6525134 150.480061,67.0802529 151.36916,68.6299617" id="Path-558"></path>
                </g>
                <path d="M94.1022727,62.8649425 L92.1818182,56.1465517 L91.2215909,50.8678161 L90.7414773,37.9109195 L88.8210227,29.2729885 L90.7414773,25.9137931 L96.5028409,20.1551724 L99.8636364,19.6752874 L102.264205,21.5948276 L106.105114,28.3132184 L109.465909,33.112069 L112.346591,30.7126437 L115.707386,27.8333333 L115.227273,26.8735632 L109.946023,28.3132184 L108.505682,27.3534483 L104.664773,19.6752874 L103.224432,13.4367816 L103.704545,7.67816092 L107.065341,3.3591954 L110.90625,0 L116.667614,0 L120.988636,2.39942529 L123.389205,5.27873563 L124.349432,11.9971264 L124.829545,15.8362069 L127.710227,20.1551724 L136.832386,22.5545977 L141.153409,26.3936782 L144.034091,31.1925287 L146.434659,45.5890805 C146.434659,45.5890805 148.355114,60.9454023 148.355114,61.4252874 C148.355114,61.9051724 154.116477,72.9425287 154.116477,72.9425287 L156.036932,80.1408046 L155.076705,101.255747 L154.596591,119.971264 L155.556818,123.33046 L168.519886,153.083333 C168.519886,153.083333 162.758523,157.882184 158.4375,158.841954 C154.116477,159.801724 145.474432,159.801724 145.474432,159.801724 L144.994318,157.882184 L145.474432,156.922414 L150.275568,155.482759 L155.076705,150.683908 L143.073864,127.16954 L140.673295,120.451149 L137.792614,96.9367816 L125.309659,114.212644 L123.389205,119.971264 L122.909091,135.807471 L121.46875,156.442529 L120.988636,163.16092 L120.028409,165.08046 L106.585227,165.560345 L99.8636364,164.12069 L96.9829545,161.241379 L97.4630682,160.281609 L109.946023,156.442529 L110.426136,121.890805 L110.426136,112.293103 L112.346591,106.534483 L116.667614,95.4971264 L122.909091,76.3017241 L122.428977,69.5833333 L114.747159,50.387931 L107.545455,58.545977 L102.264205,63.3448276 L97.9431818,64.7844828 L94.1022727,62.8649425 Z M98.9034091,30.7126437 L97.9431818,33.591954 L96.5028409,35.5114943 L96.0227273,39.3505747 L98.9034091,51.8275862 L103.224432,45.1091954 L106.105114,39.3505747 L101.784091,31.1925287 L98.9034091,30.7126437 Z" id="Path-579" fill-opacity="0.166213768" fill="#000000" sketch:type="MSShapeGroup"></path>
            </g>
            <g id="Group-6" sketch:type="MSLayerGroup" transform="translate(6.000000, 721.000000)">
                <path d="M8.5,131 L10,134.5 L10,135 L7,136 L3,136 L1,133.5 L0,129 L0.5,119.5 L2,117.5 L5,118 L9.5,121 L29,128.5 L16,110 L13.5,105.5 L12.5,101.5 L13.5,95.5 L17,87.5 L21,82.5 L27,77.5 L35,74.5 L45,72.5 L54,72 L53.5,68 L54,66.5 L50.5,60 L47.5,54 L44,45.5 L40.5,39.5 L33.5,37 L33,35.5 L35,29.5 L37.5,27 L39.5,26.5 L45.5,31.5 L50.5,32 L56.5,29.5 L63.5,24.5 L61,14.5 L61.5,10 L63.5,8 L65,3.5 L69,0.5 L75,0 L80,2 L83,5.5 L84,7.5 L92.5,12 L97,16.5 L100,22.5 L103,32 L104.5,40.5 L105,46 L99.5,70.5 L97.5,78 L100,89.5 L101.5,99.5 L101,119 L100.5,126 L98.5,131 L95,132.5 L90,132 C90,132 87.5,130.5 89,127 C90.5,123.5 91.5,119 91.5,119 L90,101.5 L85,103 L77.5,103 L74.5,101 L69.5,101 L63,121 L63.5,122.5 L68,125 L68,127 L60,126.5 L53.5,125 L52,127 L50,127 L49.5,128.5 L57,143 L61.5,145.5 L67,144.5 L74,147 L75,149 L73,155.5 L70.5,157.5 L67,157 L61.5,156 L55,151.5 L49.5,147.5 L47,143.5 L42.5,145 L36.5,144.5 L20.5,136.5 L15.5,133.5 L8.5,131 Z M39,105 L40.5,115.5 L43.5,106 L41,105 L39,105 Z M47.5,38.5 L52,37 L62,35.5 L68.5,33.5 L70.5,32 L73.5,34.5 L77,42 L76.5,45.5 L70.5,65 L70.5,71.5 L63.5,63.5 L59.5,59 L56,51.5 L49,42 L47.5,38.5 Z" id="Path-569" fill-opacity="0.166213768" fill="#000000" sketch:type="MSShapeGroup"></path>
                <path d="M74.5,78 L76.5,78 L81.5,80.5 L76,84.5 L74,87 L71.5,92 L69,93.5 L66.5,93 L64,91.5 L63.5,89.5 L64,86 L66.5,81.5 C66.5,81.5 62.6020706,80.4974117 63,80 C63.2687373,79.6640784 68.5,79 68.5,79 L73.5,80.5 L74.5,78 Z" id="Path-563" fill="#FF5454" sketch:type="MSShapeGroup"></path>
                <path d="M45,31.5 L46.5,33.5 L48,38 L51.5,37 L51.5,34.5 L50,31.5 L47.5,31.5 L45,31.5 Z" id="Path-565" fill="#FF5454" sketch:type="MSShapeGroup"></path>
                <path d="M35,30.5 L33,32 L32,35.5 L34.5,39 L36.5,40 L40.5,40 L37.5,38.5 L34.5,37 C34.5,37 32.5,36.5 33.5,36 C34.5,35.5 37.5,36 37.5,36 L35,30.5 Z" id="Path-564" fill="#FF5454" sketch:type="MSShapeGroup"></path>
                <g id="Group" stroke="#000000" sketch:type="MSShapeGroup">
                    <path d="M65.5153203,71.6073394 C62.005571,71.3174312 44.0181058,72.187156 40.0696379,73.4917431 C36.1211699,74.7963303 26.4693593,74.6513755 18.2799443,85.6678899 C15.2089136,91.7559633 11.4066852,98.5688089 12.8690808,103.93211 C14.3314763,109.295411 34.0738157,135.677066 35.6824513,137.27156 C37.2910868,138.866053 36.5598886,139.73578 36.5598886,139.73578 L35.097493,137.706422" id="Path-468"></path>
                    <path d="M28.8091922,128.574312 C28.8091922,128.574312 16.086351,123.355963 11.4066852,121.616514 C6.7270195,119.877064 5.70334262,117.412844 3.36350975,117.412844 C1.02367688,117.412844 0.731197772,119.007339 0.438718663,121.47156 C0.146239554,123.93578 -1.16991643,133.357798 3.21727019,135.966972 C6.28830084,136.836697 9.65181017,135.53211 10.0905292,135.097248 C10.5292483,134.662385 8.7743734,131.473394 8.04317549,130.023853 C9.65181058,132.488073 14.9164341,133.212844 15.7938719,133.792661 C16.6713096,134.372477 28.5167138,140.605505 30.7103064,141.620183 C32.903899,142.634862 39.923399,147.273394 46.6504178,143.794495" id="Path-469"></path>
                    <path d="M16.2325905,89.4366972 C15.6476323,92.4807339 19.1573816,99.293578 20.4735376,100.018349 C21.7896936,100.743119 27.6392757,105.091743 32.0264624,105.091743 C36.4136491,105.091743 41.5320334,105.236697 42.2632312,105.526606 C42.994429,105.816514 43.5793872,106.251376 43.5793872,106.251376 C43.5793872,106.251376 40.2158774,118.862385 39.4846797,120.456881 C41.8245125,123.355963 50.1601693,127.414679 51.9150418,127.414679 C54.8398329,123.355963 60.2506986,115.673394 61.4206128,114.368807 C62.5905271,113.06422 66.1002807,101.757798 67.270195,100.888073 C68.4401092,100.018349 67.8551532,94.5100917 67.8551532,94.5100917" id="Path-470"></path>
                    <path d="M73.7047354,79.4348624 C73.7047354,76.9706422 70.7799443,72.0422018 68.8788301,69.5779817 C66.9777159,67.1137615 63.1754875,63.3449541 63.1754875,63.3449541 C63.1754875,63.3449541 58.2033426,61.3155963 53.3774373,67.8385321 C53.816156,69.4330275 54.1086351,71.7522936 54.1086351,71.7522936" id="Path-471"></path>
                    <path d="M62.7367688,63.0550459 L59.5194986,58.706422 L56.0097493,52.1834862 L49.867688,43.3412844 C49.867688,43.3412844 47.9665738,40.587156 47.9665738,39.5724771 C47.9665738,38.5577982 46.5041783,33.6293578 45.9192201,32.4697248 C45.3342619,31.3100917 39.9233984,26.6715596 39.9233984,26.6715596 C39.9233984,26.6715596 39.045961,26.8165138 37.729805,27.106422 C36.413649,27.3963303 34.805014,30.0055047 34.805014,30.0055047 L37.1448468,35.8036697 C37.1448468,35.8036697 34.5125348,35.3688072 33.6350975,36.093578 C32.7576602,36.8183488 33.781337,37.1082569 33.781337,37.1082569 C33.781337,37.1082569 37.2910863,38.1229356 38.0222841,38.5577982 C38.7534819,38.9926607 40.362117,39.8623853 40.362117,39.8623853 L44.4568245,46.3853211 C44.4568245,46.3853211 48.5515331,57.8366982 50.7451253,60.7357798 C52.7924791,63.6348624 53.816156,66.9688073 53.816156,66.9688073" id="Path-472"></path>
                    <path d="M75.1671309,0.144954128 C70.6337043,-0.289908257 61.8593315,1.0146789 63.6142061,12.7559633 C65.3690808,24.4972477 70.1949857,29.2807339 72.6810585,29.2807339 C75.1671313,29.2807339 78.5306408,27.2513772 82.6253483,16.379817 C86.7200559,5.50825681 79.7005575,0.579816514 75.1671309,0.144954128 Z" id="Path-473"></path>
                    <path d="M83.6490251,7.10275229 C87.597493,9.13211009 95.7869081,12.466055 98.5654596,19.2788991 C101.344011,26.0917431 101.928969,29.1357798 101.928969,29.1357798 C101.928969,29.1357798 105,38.1229358 105,42.3266055 C105,46.5302752 103.245125,56.0972477 101.928969,60.5908257 C100.612813,65.0844037 97.3955432,77.4055046 97.3955432,77.4055046 C97.3955432,77.4055046 101.344011,95.6697248 101.63649,98.4238532 C101.928969,101.177982 101.051532,117.122936 101.051532,119.152294 C101.051532,121.181651 101.78273,133.357798 93.4470752,132.633028 C85.1114206,131.908257 88.4749304,127.849541 89.4986072,125.240367 C90.5222841,122.631193 91.545961,118.862385 91.545961,118.862385 L89.7910864,101.322936" id="Path-474"></path>
                    <path d="M63.4679666,7.97247706 C63.4679666,7.97247706 59.0807799,10.7266055 61.7130919,17.9743119 C62.8830084,21.8880734 62.7367688,23.0477064 62.7367688,23.0477064 C62.7367688,23.0477064 65.0766016,27.9761468 67.5626741,27.5412844" id="Path-475"></path>
                    <path d="M66.2465181,23.9174312 C66.2465181,23.9174312 68.2938719,28.1211009 69.0250696,29.4256881 C69.7562674,30.7302752 73.5584958,34.6440367 73.5584958,34.6440367 C73.5584958,34.6440367 76.775766,40.4422018 77.2144847,41.8917431 C77.6532033,43.3412844 75.8983287,47.2550459 75.0208914,50.2990826 C74.143454,53.3431193 70.4874652,64.6495413 70.4874652,65.8091743 C70.4874652,66.9688073 70.6337047,72.0422018 70.6337047,72.0422018" id="Path-476"></path>
                    <path d="M34.8050139,30.440367 C34.8050139,30.440367 33.0501393,31.0201835 32.7576602,32.1798165 C32.4651811,33.3394495 32.3189415,35.8036697 33.0501393,36.9633028 C33.781337,38.1229358 35.9749303,40.2972477 37.1448468,40.2972477 C38.3147632,40.2972477 39.7771588,40.2972477 40.2158774,40.0073394" id="Path-477"></path>
                    <path d="M44.7493036,31.3100917 L48.8440111,31.7449541 L49.7214485,31.6 C49.7214485,31.6 52.0612813,34.6440367 51.3300836,37.1082569 C50.4526462,37.5431193 47.8203343,38.2678899 47.8203343,38.2678899" id="Path-478"></path>
                    <path d="M50.0139276,31.8899083 C50.0139276,31.8899083 54.9860724,30.2954128 56.1559889,29.8605505 C57.3259053,29.4256881 62.2980501,25.5119266 62.8830084,25.2220183 C63.4679666,24.9321101 63.0292479,23.4825688 63.0292479,23.4825688" id="Path-479"></path>
                    <path d="M51.4763231,37.1082569 L61.2743733,35.6587156 C61.2743733,35.6587156 68.586351,33.7743119 69.0250696,33.4844037 C69.4637883,33.1944954 70.7799443,31.7449541 70.7799443,31.7449541" id="Path-480"></path>
                    <path d="M99.1504178,25.6568807 C99.1504178,26.8165138 98.4192201,33.0495413 98.4192201,33.6293578 C98.4192201,34.2091743 96.810585,43.4862385 96.810585,44.3559633 C96.810585,45.2256881 94.4707521,52.9082569 94.4707521,52.9082569 L89.4986072,66.3889908 C89.4986072,66.3889908 82.9178273,79 82.1866295,79.7247706 C81.4554318,80.4495413 79.2618384,82.0440367 78.9693593,82.333945 C78.6768802,82.6238532 74.8746518,85.0880734 74.5821727,86.1027523 C74.2896936,87.1174312 71.6573816,91.7559633 71.218663,92.0458716 C70.7799443,92.3357798 69.7562674,93.640367 68.1476323,93.640367 C66.5389972,93.640367 63.9066852,91.6110092 63.6142061,90.7412844 C63.321727,89.8715596 63.9066852,86.8275229 64.4916435,85.5229358 C65.0766017,84.2183486 66.6852368,81.4642202 66.6852368,81.4642202 C66.6852368,81.4642202 62.005571,81.3192661 62.4442897,79.4348624 C64.4916435,79.2899083 69.1713092,79.1449541 69.1713092,79.1449541 L73.1197772,80.0146789 C73.1197772,80.0146789 75.3133703,76.5357798 76.0445682,75.3761468 C76.7757662,74.2165138 81.0167129,64.7944954 81.0167131,63.6348624 C81.0167133,62.4752294 83.2103064,56.9669725 83.2103064,56.9669725 L85.1114206,53.4880734 L85.4038997,47.1100917 C85.4038997,47.1100917 85.9888578,36.9633028 85.9888579,36.9633028 C85.9888581,36.9633028 85.9888579,32.759633 85.9888579,32.759633 L85.1114206,31.0201835 L84.9651811,32.1798165 L85.5501393,33.3394495" id="Path-481"></path>
                    <path d="M96.810585,44.066055 C95.9331476,43.3412844 92.1309192,42.4715596 90.3760446,42.4715596 C88.6211699,42.4715596 86.1350975,42.6165138 85.8426184,43.4862385" id="Path-482"></path>
                    <path d="M103.830084,35.8036697 C103.245125,37.3981651 100.466574,41.4568807 97.1030641,42.7614679" id="Path-483"></path>
                    <path d="M77.0682451,41.6018349 C78.3844011,43.0513761 82.3328691,45.2256881 85.5501393,45.2256881" id="Path-484"></path>
                    <path d="M66.9777159,101.033028 C67.8551532,100.743119 75.0208914,100.888073 75.0208914,100.888073 L77.5069638,102.917431 C77.5069638,102.917431 83.356546,103.370413 86.4275766,102.627523 C89.4986072,101.884633 96.2256267,99.1486239 97.8342618,95.959633 C99.4428969,92.7706422 99.735376,84.5082569 94.0320334,81.6091743 C88.3286908,78.7100917 82.04039,80.4495413 79.408078,81.8990826" id="Path-485"></path>
                    <path d="M87.597493,101.177982 C88.0362117,100.308257 86.7200557,99.0036697 84.3802228,99.7284404 C82.04039,100.453211 82.1866295,101.46789 82.1866295,101.46789" id="Path-486"></path>
                    <path d="M69.902507,100.453211 C69.902507,101.322936 63.7604457,120.022018 63.1754875,121.181651 C62.5905292,122.341284 68.0013928,125.240367 68.0013928,125.240367 L68.4401114,126.255046 L68.0013928,127.124771 C68.0013928,127.124771 62.4442902,127.849541 53.6699164,125.240367" id="Path-487"></path>
                    <path d="M40.9470752,115.963303 C40.9470752,115.963303 38.8997214,105.816514 39.1922006,105.091743" id="Path-488"></path>
                    <path d="M40.5083565,121.616514 L38.8997214,129.444037 C38.8997214,129.444037 43.1406685,142.055046 51.4763231,148.86789 C53.6699164,150.897248 57.6183844,153.506422 57.6183844,153.506422 L63.7604457,156.405505 L69.6100279,157.855046 C69.6100279,157.855046 71.5111421,157.565138 72.6810585,156.115596 C73.8509749,154.666055 75.1671309,148.722936 74.5821727,147.708257 C73.9972145,146.693578 67.4164345,144.229358 66.8314763,144.229358 C66.2465181,144.229358 61.7130919,145.533945 61.7130919,145.533945 L56.8871866,142.779817 C56.8871866,142.779817 51.183844,132.488073 49.1364903,128.284404 C49.4289694,127.849541 50.0139276,126.834862 50.0139276,126.834862" id="Path-489"></path>
                    <path d="M57.0334262,142.634862 C57.0334262,142.634862 55.5710306,147.708257 52.2075209,149.012844" id="Path-490"></path>
                    <path id="Path-491" d="M65.5153203,79.1449541 L65.2228412,80.8844037"></path>
                    <path d="M74.4359331,77.9853211 C75.45961,77.2605505 80.4317549,79 81.3091922,80.7394495" id="Path-492"></path>
                </g>
            </g>
            <g id="Path-+-Group" sketch:type="MSLayerGroup" transform="translate(9.000000, 901.000000)">
                <path d="M19.5683453,158.928571 L12.7194245,157.461538 L3.91366906,150.615385 L0,147.681319 L0,146.214286 L4.89208633,138.879121 L2.9352518,133.5 L9.29496403,98.2912088 L12.2302158,96.8241758 L9.78417266,78.2417582 L5.38129496,74.3296703 L3.42446043,69.9285714 L2.44604317,66.0164835 L3.91366906,59.6593407 L4.89208633,55.2582418 L5.8705036,52.8131868 L6.84892086,46.9450549 L13.6978417,34.2307692 L20.057554,25.4285714 L25.4388489,22.4945055 L35.7122302,19.5604396 L37.6690647,18.0934066 L35.7122302,14.1813187 C35.7122302,14.1813187 36.6906475,3.91208791 42.5611511,1.95604396 C48.4316547,-1.11244347e-13 53.323741,-2.44505495 60.6618705,7.33516484 C63.5971223,12.7142857 64.0863309,13.6923077 64.0863309,13.6923077 L62.618705,17.1153846 L62.1294964,18.5824176 L61.1510791,18.5824176 L55.2805755,27.3846154 L56.2589928,28.3626374 L52.3453237,31.7857143 L61.6402878,35.6978022 L61.6402878,30.8076923 L62.618705,26.4065934 L68.4892086,22.0054945 L73.381295,20.0494505 L81.2086331,22.4945055 L83.1654676,23.9615385 L84.6330935,27.3846154 L87.0791367,26.8956044 L90.0143885,28.8516484 L92.4604317,31.2967033 L92.4604317,33.7417582 L90.9928058,37.1648352 L96.8633094,39.1208791 L102.244604,43.032967 L106.647482,48.4120879 L110.071942,56.7252747 L113.007194,69.9285714 L114.964029,79.7087912 L115.453237,92.4230769 L115.942446,104.159341 L119.366906,121.274725 L120.834532,133.5 L126.705036,156.972527 L126.215827,158.928571 L134.043165,170.175824 L136,172.131868 L136,175.065934 L132.086331,178 L127.683453,177.510989 L124.258993,175.554945 L119.366906,167.730769 L118.877698,165.285714 L119.366906,161.862637 L112.517986,147.192308 L110.071942,140.835165 L109.582734,137.901099 L104.201439,124.697802 L93.9280576,107.093407 L73.381295,115.406593 L77.7841727,124.208791 L80.2302158,130.565934 L84.6330935,135.456044 L84.6330935,136.923077 L82.1870504,138.879121 L77.7841727,140.346154 L71.4244604,144.258242 L67.0215827,145.236264 L64.5755396,144.747253 L64.0863309,142.302198 L65.5539568,139.368132 L74.3597122,134.478022 L61.6402878,121.763736 L59.1942446,118.340659 L58.705036,112.961538 L60.6618705,109.049451 L70.9352518,99.7582418 L83.6546763,89.489011 L85.6115108,86.5549451 L84.1438849,87.043956 L77.7841727,89 L63.5971223,91.4450549 L62.618705,83.1318681 L60.1726619,79.7087912 L55.7697842,68.4615385 L53.323741,60.6373626 L30.3309353,70.4175824 L30.8201439,71.3956044 L29.8417266,87.532967 L27.3956835,97.3131868 L24.9496403,105.626374 L17.6115108,133.989011 L14.676259,139.857143 L15.6546763,141.813187 L13.6978417,142.791209 L13.6978417,144.258242 L14.1870504,149.148352 L17.6115108,155.016484 L20.057554,156.972527 L19.5683453,158.928571 Z M39.1366906,47.4340659 L45.0071942,40.0989011 L48.9208633,40.0989011 L49.8992806,39.1208791 L52.3453237,41.5659341 L50.8776978,43.032967 L50.8776978,45.478022 L52.3453237,48.9010989 L49.8992806,48.9010989 L39.1366906,47.4340659 Z M68.4892086,54.2802198 L67.5107914,56.2362637 L69.4676259,61.6153846 L70.9352518,59.6593407 L72.4028777,60.1483516 L74.8489209,61.6153846 L77.294964,61.1263736 L81.6978417,66.0164835 L84.6330935,67.4835165 L81.6978417,59.1703297 L80.7194245,59.6593407 L68.4892086,54.2802198 Z M69.9568345,72.3736264 L71.9136691,81.6648352 L84.6330935,84.1098901 L85.6115108,85.0879121 L86.1007194,76.7747253 L85.1223022,74.3296703 L77.7841727,73.3516484 L73.381295,73.8406593 L69.9568345,72.3736264 Z" id="Path" fill="#FFFFFF" sketch:type="MSShapeGroup"></path>
                <g id="Group" transform="translate(68.000000, 89.000000) scale(-1, 1) translate(-68.000000, -89.000000) " stroke="#000000" sketch:type="MSShapeGroup">
                    <path d="M44.2662338,103.320964 C42.0584416,106.516929 35.3246753,118.341997 34.4415584,120.046512 C33.5584416,121.751026 26.1623377,136.665527 26.1623377,139.32883 C26.1623377,141.992134 21.1948052,151.580027 20.6428571,152.964945 C20.0909091,154.349863 16.6688312,161.700581 16.6688312,162.12671 C16.6688312,162.552839 17.5519481,166.174932 17.1103896,167.027189 C16.6688312,167.879446 12.3636364,178 6.84415584,178 C1.32467532,178 -1.98701299,174.697503 1.21428571,171.07541 C4.41558442,167.453317 8.16883137,161.807114 8.94155844,160.422196 C9.71428551,159.037278 9.49350649,157.226231 9.49350649,157.226231 C9.49350649,157.226231 13.7987015,137.624316 14.5714286,135.280609 C15.3441556,132.936902 16.4480521,123.668605 16.4480519,122.709815 C16.4480517,121.751026 20.3116885,104.59935 20.3116883,103.320964 C20.3116881,102.042579 20.2012989,94.372264 20.7532468,92.0285568 C22.6298701,92.9873461 26.0519483,94.1591997 28.1493506,94.1591997 C30.246753,94.1591997 42.5000002,93.2004104 45.4805195,91.6024282 C48.4610388,90.004446 50.8896106,88.0868673 50.8896104,87.4476744 C50.8896102,86.8084815 51.9935067,89.4717852 53.6493506,90.5371067 C55.3051946,91.6024282 73.0779189,106.729993 74.0714286,107.795315 C75.0649382,108.860636 77.4935101,111.310874 77.4935065,113.228454 C77.4935029,115.146034 77.1623345,117.809335 75.8376623,119.620383 C74.5129902,121.431431 61.7077954,134.534885 61.7077954,134.534885 C61.7077954,134.534885 70.2077922,138.796173 70.870133,140.287621 C71.5324739,141.779069 73.0779221,145.401156 69.2142889,145.401161 C65.3506557,145.401165 58.6168865,140.82028 57.6233798,140.287621 C56.6298731,139.754962 49.1233766,137.943912 51.5519479,135.28061 C51.9855134,134.805139 53.4285714,132.404241 55.6363634,130.912792 C58.3961071,121.644495 62.3267158,117.508892 63.1428571,115.146033 C54.8636364,112.163133 42.168831,107.049589 42.168831,107.049589" id="Path-429"></path>
                    <path d="M20.7532468,92.0285568 C20.7532468,92.0285568 20.3116883,82.4406635 21.1948052,78.1793776 C22.0779221,73.9180917 24.8376623,54.4227086 30.5779221,46.2197332 C36.0974026,39.1886115 45.038961,36.6318399 45.8116883,36.6318399 C45.9220779,39.4016758 50.1168831,48.3503762 54.6428571,47.2850547 C55.1948052,48.5634405 55.1948052,51.120212 55.1948052,51.120212 C55.1948052,51.120212 54.7532468,58.5774624 53.4285714,61.1342339 C52.1038961,63.6910055 51.6623377,67.1000342 51.6623377,67.1000342 L48.6818182,68.1653557 C48.6818182,68.1653557 51.7727273,73.2788988 51.3311688,74.876881 C55.0844156,74.2376881 58.2857143,73.4919631 58.2857143,73.4919631 C58.2857143,73.4919631 65.9025974,74.5572845 67.7792208,70.8286594 C67.8896104,65.8216484 67.1168831,60.1754446 64.4675325,59.749316 C61.9285714,60.2819767 61.2662338,61.5603625 61.2662338,61.5603625 C61.2662338,61.5603625 60.1623377,60.9211696 58.8376623,60.9211696 C57.512987,60.9211696 54.5324675,66.0347127 54.5324675,66.0347127 L52.3246753,67.1000342" id="Path-430"></path>
                    <path d="M45.7012987,53.250855 C45.2597403,55.7010944 40.4025974,66.9935021 37.5324675,70.0829343 C42.7207792,69.9764022 49.1233766,68.9110807 49.1233766,68.9110807" id="Path-431"></path>
                    <path d="M31.6818182,52.1855335 L29.1428571,60.1754446 C29.1428571,60.1754446 25.5,75.3030096 25.5,76.7944596 C25.5,78.2859097 26.8246753,82.5471956 28.4805195,82.121067 C30.1363636,81.6949384 45.9220779,77.753249 51.3311688,74.131156" id="Path-432"></path>
                    <path d="M40.7337662,65.502052 C40.7337662,64.7563269 34.9935065,60.9211696 33.6688312,60.1754446 C32.3441558,59.4297196 29.3636364,59.9623803 29.3636364,59.9623803" id="Path-433"></path>
                    <path id="Path-434" d="M50.7792208,74.4507524 C50.7792208,74.4507524 50.4480519,85.6366279 51,87.6607387"></path>
                    <path d="M62.4805195,20.2258892 C59.5,20.2258892 53.2077922,22.6761286 52.7662338,24.1675787 C52.3246753,25.6590287 47.5779221,34.0750684 47.5779221,34.0750684 C47.5779221,34.0750684 51.4415584,37.377565 52.987013,40.0408687 C54.5324675,42.7041724 55.8571429,48.8830369 59.5,49.3091655 C63.1428571,49.7352941 66.1233766,48.0307798 66.1233766,48.0307798 C66.1233766,48.0307798 62.038961,45.5805404 63.6948052,41.8519152 C65.3506494,38.12329 66.3441558,36.7383721 66.3441558,36.7383721 C66.3441558,36.7383721 71.974026,39.0820793 71.974026,39.0820793 L74.2922078,37.9102257 C74.2922078,37.9102257 75.8376623,29.2811218 72.6363636,25.872093 C69.4350649,22.4630643 65.461039,20.2258892 62.4805195,20.2258892 Z" id="Path-435"></path>
                    <path d="M49.012987,35.1403899 C49.012987,35.1403899 47.025974,36.8449042 46.0324675,36.8449042" id="Path-436"></path>
                    <path d="M51.3311688,27.6831395 C51.3311688,27.6831395 49.5649351,25.7655609 46.474026,28.3223324 C43.3831169,30.879104 42.0584416,34.7142609 45.4805195,36.7383721" id="Path-437"></path>
                    <path d="M54.5324675,59.5362517 C56.5194805,59.1101231 64.9090909,56.127223 67.1168831,54.6357729 C68.4415584,52.3985978 70.0974026,47.8177155 73.1883117,47.8177155 C76.2792208,47.8177155 81.025974,48.3503762 82.6818182,48.3503762 C84.3376623,48.3503762 86.3246753,44.1956224 85.1103896,42.8107045 C83.8961039,41.4257866 80.6948052,36.8449042 76.9415584,39.8278044 C73.1883117,42.8107045 70.4285714,46.1132011 70.4285714,46.1132011 L71.2012987,47.9242476" id="Path-438"></path>
                    <path d="M70.538961,46.2197332 C70.538961,46.2197332 63.2532468,49.9483584 55.525974,50.374487" id="Path-439"></path>
                    <path d="M67.5584416,54.2096443 C67.5584416,56.3402873 70.6493506,59.1101231 71.0909091,59.1101231 C71.5324675,59.1101231 75.6168831,58.8970588 77.4935065,58.1513338 C79.3701299,57.4056088 85.7727273,56.3402873 85.7727273,56.3402873 L85.3311688,48.9895691 L80.1428571,48.243844" id="Path-440"></path>
                    <path d="M95.487013,22.8891929 C94.2727273,23.9545144 91.2922078,27.3635431 92.5064935,30.4529754 C93.7207792,33.5424077 97.4740261,41.4257866 98.3571429,42.7041724 C101.448052,40.0408687 108.071429,36.2057114 110.38961,36.6318399 C109.727273,34.9273256 109.616883,32.0509576 109.616883,32.0509576 L109.616883,29.8137825" id="Path-441"></path>
                    <path d="M109.948052,36.4187756 C109.948052,36.4187756 115.577922,49.7352941 114.584416,51.5463406 C113.590909,53.3573871 110.831169,54.5292408 110.831169,54.5292408 C110.831169,54.5292408 96.9220779,56.7664159 85.7727273,56.0206908" id="Path-442"></path>
                    <path d="M85.3311688,49.4156977 C85.3311688,49.4156977 97.9155844,47.2850547 103.214286,46.8589261 C101.116883,45.7936047 99.2402597,42.1715116 99.2402597,42.1715116" id="Path-443"></path>
                    <path d="M79.9014213,28.1327507 C79.9014213,28.1327507 86.0339448,24.74711 86.579058,22.9915926 C85.4888316,19.6059518 83.0358222,16.7218875 83.0358222,16.7218875 L74.314011,18.8535872 C74.314011,18.8535872 71.3158884,15.5933406 72.4061148,12.333094 C73.4963412,9.07284738 78.5386382,1.17301904 84.9437184,0.169866233 C91.3487986,-0.833286572 96.9362087,2.67774825 99.1166616,8.82205918 C100.615723,12.5838822 100.343166,14.3393996 100.343166,14.3393996 C100.343166,14.3393996 90.6674069,31.0168168 85.7613882,32.7723324 C82.0818741,31.1422091 79.9014213,28.1327507 79.9014213,28.1327507 Z" id="Path-444"></path>
                    <path d="M98.025974,17.3495212 L100.344156,19.5866963 C100.344156,19.5866963 110.5,21.2912107 114.915584,24.7002394 C119.331169,28.1092681 128.926989,43.2429201 131.024392,54.6418599" id="Path-445"></path>
                    <path d="M114.02439,52.5720932 C114.02439,52.5720932 122.422078,53.0560535 124.077922,54.2279071 C123.788139,55.682121 131.678511,53.6830964 131.743982,55.5858551 C131.803213,57.3072738 132.053591,59.1554705 132.577922,61.0277018 C133.681818,64.9693912 134.233766,71.7874487 126.727273,77.9663133 C124.409091,86.8084815 124.077922,96.8225034 124.077922,96.8225034 L126.506494,98.6335499 L129.818182,116.850547 L132.909091,134.108755 L131.915584,137.411252 L131.142857,139.115766 L136,146.573016 L135.668831,147.957934 L130.038961,152.432285 C130.038961,152.432285 124.74026,158.078488 116.792208,158.824213 C115.909091,157.971956 116.461039,157.013167 116.461039,157.013167 C116.461039,157.013167 123.525974,149.982045 122.090909,143.377052 C122.642857,142.418263 120.655844,141.672538 120.655844,141.672538 L121.318182,140.394152 L118.668831,134.002223 C118.668831,134.002223 111.383117,106.197332 110.5,103.1079 C109.616883,100.018468 105.201299,93.5200068 105.201299,69.9764022" id="Path-446"></path>
                    <path d="M127.720779,72.1070451 C124.62987,74.2376881 121.428571,77.753249 104.87013,70.0829343 C91.1818182,65.1824555 84.7792208,61.9864911 82.6818182,60.7081053 C79.9220779,66.247777 78.6889459,76.9192546 73.3902446,83.2046513 C72.5071277,87.8920658 72.2863485,91.3010946 72.2863485,91.3010946 C72.2863485,91.3010946 55.6363636,89.7913817 50.8896104,86.1692886 C50.8896104,83.6125171 51.3311688,84.25171 51.3311688,84.25171 C51.3311688,84.25171 58.7488128,83.7860125 64.2682933,81.5488374 C65.3721894,75.476505 65.9268299,72.8558141 65.9268299,72.8558141" id="Path-447"></path>
                    <path d="M66.4545455,61.879959 C66.4545455,61.879959 67.5584416,57.1925445 68.3311688,56.4468194" id="Path-448"></path>
                    <path d="M97.0324675,47.498119 C97.0324675,47.498119 91.7337662,40.7865937 90.961039,39.7212722 C88.4220779,39.9343365 86.6558442,39.8278044 86.6558442,39.8278044 C86.6558442,39.8278044 83.1233766,33.4358755 81.025974,32.9032148 C83.3441558,32.0509576 84.8896104,30.5595075 84.8896104,30.5595075" id="Path-449"></path>
                    <path d="M81.7987013,33.0097469 C81.7987013,33.0097469 77.3831169,34.8207934 75.0649351,35.4599863" id="Path-450"></path>
                    <path d="M86.2142857,39.1886115 L84.0064935,41.1061902" id="Path-451"></path>
                    <path d="M50.5853659,74.5116279 C49.7560976,76.5813953 49.7560976,84.0325581 50.5853659,88.172093" id="Path-454"></path>
                </g>
            </g>
        </g>
    </g>
</svg>